<svg width="112" height="43" viewBox="0 0 112 43" fill="none" xmlns="http://www.w3.org/2000/svg">
<mask id="path-1-outside-1_993_2254" maskUnits="userSpaceOnUse" x="0" y="0.191895" width="112" height="43" fill="black">
<rect fill="white" y="0.191895" width="112" height="43"/>
<path d="M13.11 1.19189C11.287 1.19189 9.64998 1.51205 8.19902 2.15236C6.74805 2.79266 5.52031 3.6213 4.5158 4.63826C3.51129 5.61755 2.73 6.72867 2.17193 7.97162C1.65107 9.17691 1.39064 10.3634 1.39064 11.531C1.39064 13.7156 1.8557 15.467 2.7858 16.7853C3.71591 18.0659 4.86924 19.1205 6.2458 19.9491C7.65956 20.7401 9.18493 21.3992 10.8219 21.9266C12.4589 22.4539 13.9657 23.0188 15.3422 23.6215C16.756 24.2241 17.9279 24.9774 18.858 25.8814C19.7881 26.7854 20.2532 28.0283 20.2532 29.6102C20.2532 30.7402 20.0672 31.7948 19.6951 32.7741C19.3231 33.7534 18.7836 34.6197 18.0767 35.373C17.3699 36.1263 16.5142 36.729 15.5096 37.1809C14.5051 37.5953 13.3704 37.8024 12.1055 37.8024C10.8405 37.8024 9.74299 37.6518 8.81289 37.3504C7.88278 37.0115 7.04569 36.6536 6.3016 36.277C5.59472 35.8627 4.98085 35.5048 4.45999 35.2035C3.93913 34.8645 3.47408 34.695 3.06483 34.695C2.35795 34.695 1.83709 34.9587 1.50226 35.486C1.16742 35.9757 1 36.5595 1 37.2374C1 37.9531 1.31624 38.6122 1.94871 39.2149C2.61838 39.7798 3.47408 40.2883 4.5158 40.7403C5.59472 41.1546 6.78526 41.4936 8.0874 41.7573C9.42676 41.9832 10.7475 42.0962 12.0497 42.0962C14.2075 42.0962 16.1235 41.7573 17.7977 41.0793C19.4719 40.3636 20.8671 39.422 21.9832 38.2544C23.1365 37.0868 24.0108 35.7308 24.6061 34.1866C25.2014 32.6423 25.499 31.0415 25.499 29.3843C25.499 27.1243 25.0339 25.3164 24.1038 23.9605C23.1737 22.5669 22.0018 21.4557 20.588 20.6271C19.2115 19.7608 17.7047 19.064 16.0677 18.5367C14.4307 18.0094 12.9054 17.4444 11.4916 16.8418C10.115 16.2391 8.9617 15.5235 8.0316 14.6949C7.10149 13.8286 6.63644 12.6609 6.63644 11.192C6.63644 9.49706 7.23171 8.12228 8.42224 7.06766C9.61278 6.01303 11.1195 5.48572 12.9426 5.48572C14.1703 5.48572 15.1562 5.61755 15.9003 5.88121C16.6816 6.14486 17.3327 6.44618 17.8535 6.78517C18.4116 7.12416 18.8952 7.42548 19.3045 7.68913C19.7137 7.95279 20.1974 8.08462 20.7554 8.08462C21.3879 8.08462 21.8902 7.87746 22.2622 7.46314C22.6715 7.01116 22.8761 6.48385 22.8761 5.88121C22.8761 5.2409 22.5971 4.63826 22.039 4.07328C21.4809 3.47064 20.7368 2.96216 19.8067 2.54784C18.9138 2.13352 17.8721 1.81337 16.6816 1.58738C15.5282 1.32372 14.3377 1.19189 13.11 1.19189Z"/>
<path d="M40.6474 7.63264H40.759L50.1902 35.9719C50.4507 36.8005 50.7855 37.3467 51.1947 37.6103C51.6412 37.874 52.1435 38.0058 52.7015 38.0058C53.2596 38.0058 53.7432 37.874 54.1525 37.6103C54.5989 37.3467 54.9524 36.8005 55.2128 35.9719L64.7557 7.63264H64.8673L69.4992 39.9493C69.6108 40.8156 69.9085 41.3994 70.3921 41.7008C70.913 41.9644 71.4897 42.0962 72.1221 42.0962C72.8662 42.0962 73.4243 41.8703 73.7963 41.4183C74.2056 40.9286 74.4102 40.3072 74.4102 39.5538C74.4102 39.2525 74.373 38.9324 74.2986 38.5934C74.2614 38.2167 74.2056 37.7836 74.1312 37.2939L68.7179 4.97724C68.4575 3.54597 67.9739 2.56667 67.267 2.03936C66.5601 1.47438 65.7602 1.19189 64.8673 1.19189C63.9 1.19189 63.1373 1.39905 62.5792 1.81337C62.0212 2.19002 61.5933 2.84916 61.2957 3.79079L52.8131 33.2261H52.7015L44.219 3.79079C43.9213 2.84916 43.4935 2.19002 42.9354 1.81337C42.3773 1.39905 41.6147 1.19189 40.6474 1.19189C39.7545 1.19189 38.9546 1.47438 38.2477 2.03936C37.5408 2.56667 37.0571 3.54597 36.7967 4.97724L31.3835 37.2939C31.3091 37.7836 31.2347 38.2167 31.1603 38.5934C31.1231 38.9324 31.1045 39.2525 31.1045 39.5538C31.1045 40.3072 31.2905 40.9286 31.6625 41.4183C32.0718 41.8703 32.6484 42.0962 33.3925 42.0962C34.025 42.0962 34.5831 41.9644 35.0667 41.7008C35.5876 41.3994 35.9038 40.8156 36.0154 39.9493L40.6474 7.63264Z"/>
<path d="M85.7938 21.6441C85.7938 19.7231 86.017 17.8022 86.4635 15.8813C86.9471 13.9604 87.6912 12.2278 88.6957 10.6835C89.7002 9.13924 90.9838 7.89629 92.5464 6.95466C94.1461 5.97537 96.0436 5.48572 98.2386 5.48572C99.764 5.48572 101.01 5.69288 101.978 6.1072C102.945 6.52151 103.763 6.9735 104.433 7.46314C105.103 7.95279 105.679 8.40477 106.163 8.81909C106.647 9.2334 107.168 9.44056 107.726 9.44056C108.358 9.44056 108.842 9.21457 109.177 8.76259C109.549 8.27294 109.735 7.70797 109.735 7.06766C109.735 6.54035 109.456 5.95654 108.898 5.31623C108.377 4.63826 107.614 3.99795 106.61 3.39531C105.605 2.755 104.396 2.22769 102.982 1.81337C101.568 1.39905 99.9872 1.19189 98.2386 1.19189C95.2995 1.19189 92.7138 1.7757 90.4815 2.94332C88.2865 4.07328 86.4449 5.59872 84.9567 7.51964C83.5057 9.4029 82.4082 11.5875 81.6641 14.0734C80.9201 16.5216 80.548 19.0452 80.548 21.6441C80.548 24.243 80.9201 26.7854 81.6641 29.2713C82.4082 31.7195 83.5057 33.9041 84.9567 35.825C86.4077 37.7083 88.2121 39.2337 90.3699 40.4013C92.565 41.5313 95.0949 42.0962 97.9596 42.0962C99.7082 42.0962 101.345 41.9267 102.871 41.5878C104.396 41.2488 105.735 40.8156 106.889 40.2883C108.042 39.7233 108.935 39.1207 109.567 38.4804C110.237 37.8024 110.572 37.1433 110.572 36.503C110.572 35.7873 110.386 35.2224 110.014 34.808C109.679 34.3937 109.214 34.1866 108.619 34.1866C108.098 34.1866 107.521 34.3749 106.889 34.7515C106.293 35.1282 105.568 35.5425 104.712 35.9945C103.894 36.4465 102.926 36.8608 101.81 37.2374C100.731 37.6141 99.4478 37.8024 97.9596 37.8024C95.839 37.8024 94.0159 37.3316 92.4906 36.39C90.9652 35.4107 89.7002 34.1489 88.6957 32.6046C87.7284 31.0604 87.0029 29.3278 86.5193 27.4068C86.0356 25.4859 85.7938 23.565 85.7938 21.6441Z"/>
</mask>
<path d="M13.11 1.19189C11.287 1.19189 9.64998 1.51205 8.19902 2.15236C6.74805 2.79266 5.52031 3.6213 4.5158 4.63826C3.51129 5.61755 2.73 6.72867 2.17193 7.97162C1.65107 9.17691 1.39064 10.3634 1.39064 11.531C1.39064 13.7156 1.8557 15.467 2.7858 16.7853C3.71591 18.0659 4.86924 19.1205 6.2458 19.9491C7.65956 20.7401 9.18493 21.3992 10.8219 21.9266C12.4589 22.4539 13.9657 23.0188 15.3422 23.6215C16.756 24.2241 17.9279 24.9774 18.858 25.8814C19.7881 26.7854 20.2532 28.0283 20.2532 29.6102C20.2532 30.7402 20.0672 31.7948 19.6951 32.7741C19.3231 33.7534 18.7836 34.6197 18.0767 35.373C17.3699 36.1263 16.5142 36.729 15.5096 37.1809C14.5051 37.5953 13.3704 37.8024 12.1055 37.8024C10.8405 37.8024 9.74299 37.6518 8.81289 37.3504C7.88278 37.0115 7.04569 36.6536 6.3016 36.277C5.59472 35.8627 4.98085 35.5048 4.45999 35.2035C3.93913 34.8645 3.47408 34.695 3.06483 34.695C2.35795 34.695 1.83709 34.9587 1.50226 35.486C1.16742 35.9757 1 36.5595 1 37.2374C1 37.9531 1.31624 38.6122 1.94871 39.2149C2.61838 39.7798 3.47408 40.2883 4.5158 40.7403C5.59472 41.1546 6.78526 41.4936 8.0874 41.7573C9.42676 41.9832 10.7475 42.0962 12.0497 42.0962C14.2075 42.0962 16.1235 41.7573 17.7977 41.0793C19.4719 40.3636 20.8671 39.422 21.9832 38.2544C23.1365 37.0868 24.0108 35.7308 24.6061 34.1866C25.2014 32.6423 25.499 31.0415 25.499 29.3843C25.499 27.1243 25.0339 25.3164 24.1038 23.9605C23.1737 22.5669 22.0018 21.4557 20.588 20.6271C19.2115 19.7608 17.7047 19.064 16.0677 18.5367C14.4307 18.0094 12.9054 17.4444 11.4916 16.8418C10.115 16.2391 8.9617 15.5235 8.0316 14.6949C7.10149 13.8286 6.63644 12.6609 6.63644 11.192C6.63644 9.49706 7.23171 8.12228 8.42224 7.06766C9.61278 6.01303 11.1195 5.48572 12.9426 5.48572C14.1703 5.48572 15.1562 5.61755 15.9003 5.88121C16.6816 6.14486 17.3327 6.44618 17.8535 6.78517C18.4116 7.12416 18.8952 7.42548 19.3045 7.68913C19.7137 7.95279 20.1974 8.08462 20.7554 8.08462C21.3879 8.08462 21.8902 7.87746 22.2622 7.46314C22.6715 7.01116 22.8761 6.48385 22.8761 5.88121C22.8761 5.2409 22.5971 4.63826 22.039 4.07328C21.4809 3.47064 20.7368 2.96216 19.8067 2.54784C18.9138 2.13352 17.8721 1.81337 16.6816 1.58738C15.5282 1.32372 14.3377 1.19189 13.11 1.19189Z" fill="white"/>
<path d="M40.6474 7.63264H40.759L50.1902 35.9719C50.4507 36.8005 50.7855 37.3467 51.1947 37.6103C51.6412 37.874 52.1435 38.0058 52.7015 38.0058C53.2596 38.0058 53.7432 37.874 54.1525 37.6103C54.5989 37.3467 54.9524 36.8005 55.2128 35.9719L64.7557 7.63264H64.8673L69.4992 39.9493C69.6108 40.8156 69.9085 41.3994 70.3921 41.7008C70.913 41.9644 71.4897 42.0962 72.1221 42.0962C72.8662 42.0962 73.4243 41.8703 73.7963 41.4183C74.2056 40.9286 74.4102 40.3072 74.4102 39.5538C74.4102 39.2525 74.373 38.9324 74.2986 38.5934C74.2614 38.2167 74.2056 37.7836 74.1312 37.2939L68.7179 4.97724C68.4575 3.54597 67.9739 2.56667 67.267 2.03936C66.5601 1.47438 65.7602 1.19189 64.8673 1.19189C63.9 1.19189 63.1373 1.39905 62.5792 1.81337C62.0212 2.19002 61.5933 2.84916 61.2957 3.79079L52.8131 33.2261H52.7015L44.219 3.79079C43.9213 2.84916 43.4935 2.19002 42.9354 1.81337C42.3773 1.39905 41.6147 1.19189 40.6474 1.19189C39.7545 1.19189 38.9546 1.47438 38.2477 2.03936C37.5408 2.56667 37.0571 3.54597 36.7967 4.97724L31.3835 37.2939C31.3091 37.7836 31.2347 38.2167 31.1603 38.5934C31.1231 38.9324 31.1045 39.2525 31.1045 39.5538C31.1045 40.3072 31.2905 40.9286 31.6625 41.4183C32.0718 41.8703 32.6484 42.0962 33.3925 42.0962C34.025 42.0962 34.5831 41.9644 35.0667 41.7008C35.5876 41.3994 35.9038 40.8156 36.0154 39.9493L40.6474 7.63264Z" fill="white"/>
<path d="M85.7938 21.6441C85.7938 19.7231 86.017 17.8022 86.4635 15.8813C86.9471 13.9604 87.6912 12.2278 88.6957 10.6835C89.7002 9.13924 90.9838 7.89629 92.5464 6.95466C94.1461 5.97537 96.0436 5.48572 98.2386 5.48572C99.764 5.48572 101.01 5.69288 101.978 6.1072C102.945 6.52151 103.763 6.9735 104.433 7.46314C105.103 7.95279 105.679 8.40477 106.163 8.81909C106.647 9.2334 107.168 9.44056 107.726 9.44056C108.358 9.44056 108.842 9.21457 109.177 8.76259C109.549 8.27294 109.735 7.70797 109.735 7.06766C109.735 6.54035 109.456 5.95654 108.898 5.31623C108.377 4.63826 107.614 3.99795 106.61 3.39531C105.605 2.755 104.396 2.22769 102.982 1.81337C101.568 1.39905 99.9872 1.19189 98.2386 1.19189C95.2995 1.19189 92.7138 1.7757 90.4815 2.94332C88.2865 4.07328 86.4449 5.59872 84.9567 7.51964C83.5057 9.4029 82.4082 11.5875 81.6641 14.0734C80.9201 16.5216 80.548 19.0452 80.548 21.6441C80.548 24.243 80.9201 26.7854 81.6641 29.2713C82.4082 31.7195 83.5057 33.9041 84.9567 35.825C86.4077 37.7083 88.2121 39.2337 90.3699 40.4013C92.565 41.5313 95.0949 42.0962 97.9596 42.0962C99.7082 42.0962 101.345 41.9267 102.871 41.5878C104.396 41.2488 105.735 40.8156 106.889 40.2883C108.042 39.7233 108.935 39.1207 109.567 38.4804C110.237 37.8024 110.572 37.1433 110.572 36.503C110.572 35.7873 110.386 35.2224 110.014 34.808C109.679 34.3937 109.214 34.1866 108.619 34.1866C108.098 34.1866 107.521 34.3749 106.889 34.7515C106.293 35.1282 105.568 35.5425 104.712 35.9945C103.894 36.4465 102.926 36.8608 101.81 37.2374C100.731 37.6141 99.4478 37.8024 97.9596 37.8024C95.839 37.8024 94.0159 37.3316 92.4906 36.39C90.9652 35.4107 89.7002 34.1489 88.6957 32.6046C87.7284 31.0604 87.0029 29.3278 86.5193 27.4068C86.0356 25.4859 85.7938 23.565 85.7938 21.6441Z" fill="white"/>
<path d="M13.11 1.19189C11.287 1.19189 9.64998 1.51205 8.19902 2.15236C6.74805 2.79266 5.52031 3.6213 4.5158 4.63826C3.51129 5.61755 2.73 6.72867 2.17193 7.97162C1.65107 9.17691 1.39064 10.3634 1.39064 11.531C1.39064 13.7156 1.8557 15.467 2.7858 16.7853C3.71591 18.0659 4.86924 19.1205 6.2458 19.9491C7.65956 20.7401 9.18493 21.3992 10.8219 21.9266C12.4589 22.4539 13.9657 23.0188 15.3422 23.6215C16.756 24.2241 17.9279 24.9774 18.858 25.8814C19.7881 26.7854 20.2532 28.0283 20.2532 29.6102C20.2532 30.7402 20.0672 31.7948 19.6951 32.7741C19.3231 33.7534 18.7836 34.6197 18.0767 35.373C17.3699 36.1263 16.5142 36.729 15.5096 37.1809C14.5051 37.5953 13.3704 37.8024 12.1055 37.8024C10.8405 37.8024 9.74299 37.6518 8.81289 37.3504C7.88278 37.0115 7.04569 36.6536 6.3016 36.277C5.59472 35.8627 4.98085 35.5048 4.45999 35.2035C3.93913 34.8645 3.47408 34.695 3.06483 34.695C2.35795 34.695 1.83709 34.9587 1.50226 35.486C1.16742 35.9757 1 36.5595 1 37.2374C1 37.9531 1.31624 38.6122 1.94871 39.2149C2.61838 39.7798 3.47408 40.2883 4.5158 40.7403C5.59472 41.1546 6.78526 41.4936 8.0874 41.7573C9.42676 41.9832 10.7475 42.0962 12.0497 42.0962C14.2075 42.0962 16.1235 41.7573 17.7977 41.0793C19.4719 40.3636 20.8671 39.422 21.9832 38.2544C23.1365 37.0868 24.0108 35.7308 24.6061 34.1866C25.2014 32.6423 25.499 31.0415 25.499 29.3843C25.499 27.1243 25.0339 25.3164 24.1038 23.9605C23.1737 22.5669 22.0018 21.4557 20.588 20.6271C19.2115 19.7608 17.7047 19.064 16.0677 18.5367C14.4307 18.0094 12.9054 17.4444 11.4916 16.8418C10.115 16.2391 8.9617 15.5235 8.0316 14.6949C7.10149 13.8286 6.63644 12.6609 6.63644 11.192C6.63644 9.49706 7.23171 8.12228 8.42224 7.06766C9.61278 6.01303 11.1195 5.48572 12.9426 5.48572C14.1703 5.48572 15.1562 5.61755 15.9003 5.88121C16.6816 6.14486 17.3327 6.44618 17.8535 6.78517C18.4116 7.12416 18.8952 7.42548 19.3045 7.68913C19.7137 7.95279 20.1974 8.08462 20.7554 8.08462C21.3879 8.08462 21.8902 7.87746 22.2622 7.46314C22.6715 7.01116 22.8761 6.48385 22.8761 5.88121C22.8761 5.2409 22.5971 4.63826 22.039 4.07328C21.4809 3.47064 20.7368 2.96216 19.8067 2.54784C18.9138 2.13352 17.8721 1.81337 16.6816 1.58738C15.5282 1.32372 14.3377 1.19189 13.11 1.19189Z" stroke="white" stroke-width="1.31293" mask="url(#path-1-outside-1_993_2254)"/>
<path d="M40.6474 7.63264H40.759L50.1902 35.9719C50.4507 36.8005 50.7855 37.3467 51.1947 37.6103C51.6412 37.874 52.1435 38.0058 52.7015 38.0058C53.2596 38.0058 53.7432 37.874 54.1525 37.6103C54.5989 37.3467 54.9524 36.8005 55.2128 35.9719L64.7557 7.63264H64.8673L69.4992 39.9493C69.6108 40.8156 69.9085 41.3994 70.3921 41.7008C70.913 41.9644 71.4897 42.0962 72.1221 42.0962C72.8662 42.0962 73.4243 41.8703 73.7963 41.4183C74.2056 40.9286 74.4102 40.3072 74.4102 39.5538C74.4102 39.2525 74.373 38.9324 74.2986 38.5934C74.2614 38.2167 74.2056 37.7836 74.1312 37.2939L68.7179 4.97724C68.4575 3.54597 67.9739 2.56667 67.267 2.03936C66.5601 1.47438 65.7602 1.19189 64.8673 1.19189C63.9 1.19189 63.1373 1.39905 62.5792 1.81337C62.0212 2.19002 61.5933 2.84916 61.2957 3.79079L52.8131 33.2261H52.7015L44.219 3.79079C43.9213 2.84916 43.4935 2.19002 42.9354 1.81337C42.3773 1.39905 41.6147 1.19189 40.6474 1.19189C39.7545 1.19189 38.9546 1.47438 38.2477 2.03936C37.5408 2.56667 37.0571 3.54597 36.7967 4.97724L31.3835 37.2939C31.3091 37.7836 31.2347 38.2167 31.1603 38.5934C31.1231 38.9324 31.1045 39.2525 31.1045 39.5538C31.1045 40.3072 31.2905 40.9286 31.6625 41.4183C32.0718 41.8703 32.6484 42.0962 33.3925 42.0962C34.025 42.0962 34.5831 41.9644 35.0667 41.7008C35.5876 41.3994 35.9038 40.8156 36.0154 39.9493L40.6474 7.63264Z" stroke="white" stroke-width="1.31293" mask="url(#path-1-outside-1_993_2254)"/>
<path d="M85.7938 21.6441C85.7938 19.7231 86.017 17.8022 86.4635 15.8813C86.9471 13.9604 87.6912 12.2278 88.6957 10.6835C89.7002 9.13924 90.9838 7.89629 92.5464 6.95466C94.1461 5.97537 96.0436 5.48572 98.2386 5.48572C99.764 5.48572 101.01 5.69288 101.978 6.1072C102.945 6.52151 103.763 6.9735 104.433 7.46314C105.103 7.95279 105.679 8.40477 106.163 8.81909C106.647 9.2334 107.168 9.44056 107.726 9.44056C108.358 9.44056 108.842 9.21457 109.177 8.76259C109.549 8.27294 109.735 7.70797 109.735 7.06766C109.735 6.54035 109.456 5.95654 108.898 5.31623C108.377 4.63826 107.614 3.99795 106.61 3.39531C105.605 2.755 104.396 2.22769 102.982 1.81337C101.568 1.39905 99.9872 1.19189 98.2386 1.19189C95.2995 1.19189 92.7138 1.7757 90.4815 2.94332C88.2865 4.07328 86.4449 5.59872 84.9567 7.51964C83.5057 9.4029 82.4082 11.5875 81.6641 14.0734C80.9201 16.5216 80.548 19.0452 80.548 21.6441C80.548 24.243 80.9201 26.7854 81.6641 29.2713C82.4082 31.7195 83.5057 33.9041 84.9567 35.825C86.4077 37.7083 88.2121 39.2337 90.3699 40.4013C92.565 41.5313 95.0949 42.0962 97.9596 42.0962C99.7082 42.0962 101.345 41.9267 102.871 41.5878C104.396 41.2488 105.735 40.8156 106.889 40.2883C108.042 39.7233 108.935 39.1207 109.567 38.4804C110.237 37.8024 110.572 37.1433 110.572 36.503C110.572 35.7873 110.386 35.2224 110.014 34.808C109.679 34.3937 109.214 34.1866 108.619 34.1866C108.098 34.1866 107.521 34.3749 106.889 34.7515C106.293 35.1282 105.568 35.5425 104.712 35.9945C103.894 36.4465 102.926 36.8608 101.81 37.2374C100.731 37.6141 99.4478 37.8024 97.9596 37.8024C95.839 37.8024 94.0159 37.3316 92.4906 36.39C90.9652 35.4107 89.7002 34.1489 88.6957 32.6046C87.7284 31.0604 87.0029 29.3278 86.5193 27.4068C86.0356 25.4859 85.7938 23.565 85.7938 21.6441Z" stroke="white" stroke-width="1.31293" mask="url(#path-1-outside-1_993_2254)"/>
</svg>
