<svg width="151" height="150" viewBox="0 0 151 150" fill="none" xmlns="http://www.w3.org/2000/svg">
<mask id="path-1-inside-1_1151_3182" fill="white">
<rect width="24.2329" height="13.6315" rx="2.70707" transform="matrix(0.726791 0.686858 -0.68637 0.727253 124.428 9.08472)"/>
</mask>
<rect width="24.2329" height="13.6315" rx="2.70707" transform="matrix(0.726791 0.686858 -0.68637 0.727253 124.428 9.08472)" stroke="#91D8F6" stroke-width="8" mask="url(#path-1-inside-1_1151_3182)"/>
<mask id="path-2-inside-2_1151_3182" fill="white">
<path fill-rule="evenodd" clip-rule="evenodd" d="M130.336 4.08878e-07L125.649 4.99186C123.091 7.7168 123.191 12.0361 125.874 14.6392L135.725 24.2008C138.407 26.8039 142.656 26.7052 145.214 23.9803L150 18.8823L130.336 4.08878e-07Z"/>
</mask>
<path d="M125.649 4.99186L128.566 7.7297L128.566 7.7297L125.649 4.99186ZM130.336 0L133.106 -2.88521L130.189 -5.68704L127.42 -2.73785L130.336 0ZM125.874 14.6392L128.659 11.7689L125.874 14.6392ZM135.725 24.2008L132.939 27.0712L132.939 27.0712L135.725 24.2008ZM145.214 23.9803L142.298 21.2424L142.298 21.2424L145.214 23.9803ZM150 18.8823L152.916 21.6201L155.623 18.7365L152.771 15.997L150 18.8823ZM128.566 7.7297L133.252 2.73785L127.42 -2.73785L122.733 2.25401L128.566 7.7297ZM128.659 11.7689C127.544 10.6863 127.502 8.86295 128.566 7.7297L122.733 2.25401C118.681 6.57066 118.839 13.3859 123.088 17.5096L128.659 11.7689ZM138.511 21.3304L128.659 11.7689L123.088 17.5096L132.939 27.0712L138.511 21.3304ZM142.298 21.2424C141.269 22.3379 139.589 22.3769 138.511 21.3304L132.939 27.0712C137.225 31.231 144.042 31.0726 148.13 26.7181L142.298 21.2424ZM147.084 16.1444L142.298 21.2424L148.13 26.7181L152.916 21.6201L147.084 16.1444ZM152.771 15.997L133.106 -2.88521L127.565 2.88521L147.23 21.7675L152.771 15.997Z" fill="#91D8F6" mask="url(#path-2-inside-2_1151_3182)"/>
<path d="M73.8438 27.1091V10.9545C73.8438 7.99131 76.2392 5.55684 79.1975 5.72793C119.925 8.08336 142.555 43.1234 148.614 65.5313C149.476 68.7195 146.946 71.645 143.644 71.645H129.575H125.809" stroke="white" stroke-width="4"/>
<mask id="path-5-inside-3_1151_3182" fill="white">
<path fill-rule="evenodd" clip-rule="evenodd" d="M127.114 73.888C127.159 73.1274 127.181 72.362 127.181 71.5922C127.181 46.2809 102.778 25.7621 72.6744 25.7621C42.5712 25.7621 18.1677 46.2809 18.1677 71.5922C18.1677 72.362 18.1903 73.1274 18.2349 73.888H127.114Z"/>
</mask>
<path d="M127.114 73.888V77.888H130.886L131.107 74.1223L127.114 73.888ZM18.2349 73.888L14.2418 74.1223L14.4627 77.888H18.2349V73.888ZM123.181 71.5922C123.181 72.2838 123.161 72.9711 123.121 73.6537L131.107 74.1223C131.156 73.2838 131.181 72.4403 131.181 71.5922H123.181ZM72.6744 29.7621C101.246 29.7621 123.181 49.1118 123.181 71.5922H131.181C131.181 43.45 104.309 21.7621 72.6744 21.7621V29.7621ZM22.1677 71.5922C22.1677 49.1118 44.1025 29.7621 72.6744 29.7621V21.7621C41.0399 21.7621 14.1677 43.45 14.1677 71.5922H22.1677ZM22.2281 73.6537C22.188 72.9711 22.1677 72.2838 22.1677 71.5922H14.1677C14.1677 72.4403 14.1926 73.2838 14.2418 74.1223L22.2281 73.6537ZM18.2349 77.888H127.114V69.888H18.2349V77.888Z" fill="#91D8F6" mask="url(#path-5-inside-3_1151_3182)"/>
<path d="M6.25893 144.735L13.5076 134.675C13.8948 134.137 14.5169 133.819 15.1794 133.819H130.172C130.834 133.819 131.456 134.137 131.844 134.675L139.092 144.735C140.074 146.098 139.1 148 137.42 148H7.93076C6.25082 148 5.27686 146.098 6.25893 144.735Z" stroke="#91D8F6" stroke-width="4"/>
<mask id="path-8-inside-4_1151_3182" fill="white">
<rect x="10.0728" y="69.3979" width="124.166" height="64.923" rx="1.35353"/>
</mask>
<rect x="10.0728" y="69.3979" width="124.166" height="64.923" rx="1.35353" stroke="#91D8F6" stroke-width="8" mask="url(#path-8-inside-4_1151_3182)"/>
<rect x="28.7537" y="98.4825" width="13.6267" height="12.1208" rx="2.70707" fill="#91D8F6"/>
<path fill-rule="evenodd" clip-rule="evenodd" d="M62.773 94.9743H82.5474C84.0424 94.9743 85.2544 96.1863 85.2544 97.6814V134.144C85.2544 134.207 85.2523 134.268 85.2482 134.33H89.3125C89.3142 134.268 89.315 134.206 89.315 134.144V97.6814C89.315 93.9437 86.285 90.9137 82.5474 90.9137H62.773C59.0354 90.9137 56.0054 93.9437 56.0054 97.6814V134.144C56.0054 134.206 56.0062 134.268 56.0079 134.33H60.0722C60.0681 134.268 60.066 134.207 60.066 134.144V97.6814C60.066 96.1863 61.278 94.9743 62.773 94.9743Z" fill="white"/>
<rect x="102.964" y="98.4825" width="13.6267" height="12.1208" rx="2.70707" fill="#91D8F6"/>
</svg>
