<svg width="154" height="151" viewBox="0 0 154 151" fill="none" xmlns="http://www.w3.org/2000/svg">
<path d="M42.432 109.236C28.4095 111.41 0.701167 122.607 2.04732 150" stroke="#9FEAFF" stroke-width="4"/>
<path d="M111.744 109.414C125.705 111.578 153.293 122.726 151.953 150" stroke="#9FEAFF" stroke-width="4"/>
<path d="M136.918 61.579C136.918 94.4731 110.102 121.158 76.9998 121.158C43.8972 121.158 17.0811 94.4731 17.0811 61.579C17.0811 28.6848 43.8972 2 76.9998 2C110.102 2 136.918 28.6848 136.918 61.579Z" stroke="white" stroke-width="4"/>
<path d="M120.624 56.8424C120.624 76.335 101.457 92.7371 77 92.7371C52.5434 92.7371 33.3757 76.335 33.3757 56.8424C33.3757 37.3497 52.5434 20.9476 77 20.9476C101.457 20.9476 120.624 37.3497 120.624 56.8424Z" stroke="#9FEAFF" stroke-width="4"/>
<path d="M50.929 56.842C52.5584 52.6315 58.7503 42.9473 70.4822 37.8947" stroke="#9FEAFF" stroke-width="4"/>
<mask id="path-6-inside-1_1151_3183" fill="white">
<rect x="47.6702" y="126.316" width="61.9187" height="22.1053" rx="2.82105"/>
</mask>
<rect x="47.6702" y="126.316" width="61.9187" height="22.1053" rx="2.82105" stroke="#9FEAFF" stroke-width="6" mask="url(#path-6-inside-1_1151_3183)"/>
<rect x="24.8582" y="132.632" width="13.0355" height="3.1579" rx="1.41053" fill="#9FEAFF"/>
<rect x="18.3401" y="142.105" width="19.5533" height="3.1579" rx="1.41053" fill="#9FEAFF"/>
<rect x="119.365" y="142.105" width="19.5533" height="3.1579" rx="1.41053" fill="#9FEAFF"/>
<rect x="83.5178" y="129.474" width="3.25888" height="15.7895" fill="#9FEAFF"/>
</svg>
